<svg width="70" height="70" viewBox="0 0 70 70" fill="none" xmlns="http://www.w3.org/2000/svg">
<circle cx="35" cy="35" r="35" fill="black"/>
<path d="M27.5097 54C26.5463 54 25.7216 53.6573 25.0355 52.9719C24.3495 52.2865 24.0065 51.4625 24.0065 50.5C24.0065 49.5375 24.3495 48.7135 25.0355 48.0281C25.7216 47.3427 26.5463 47 27.5097 47C28.4731 47 29.2978 47.3427 29.9839 48.0281C30.6699 48.7135 31.0129 49.5375 31.0129 50.5C31.0129 51.4625 30.6699 52.2865 29.9839 52.9719C29.2978 53.6573 28.4731 54 27.5097 54ZM45.0259 54C44.0625 54 43.2378 53.6573 42.5517 52.9719C41.8657 52.2865 41.5227 51.4625 41.5227 50.5C41.5227 49.5375 41.8657 48.7135 42.5517 48.0281C43.2378 47.3427 44.0625 47 45.0259 47C45.9893 47 46.814 47.3427 47.5001 48.0281C48.1861 48.7135 48.5291 49.5375 48.5291 50.5C48.5291 51.4625 48.1861 52.2865 47.5001 52.9719C46.814 53.6573 45.9893 54 45.0259 54ZM26.0208 26L30.2247 34.75H42.486L47.303 26H26.0208ZM24.3568 22.5H50.1932C50.8646 22.5 51.3755 22.799 51.7258 23.3969C52.0762 23.9948 52.0908 24.6 51.7696 25.2125L45.5514 36.4125C45.2302 36.9958 44.7996 37.4479 44.2596 37.7687C43.7195 38.0896 43.1283 38.25 42.486 38.25H29.4365L27.5097 41.75H48.5291V45.25H27.5097C26.196 45.25 25.2034 44.674 24.532 43.5219C23.8605 42.3698 23.8313 41.225 24.4444 40.0875L26.8091 35.8L20.5032 22.5H17V19H22.6928L24.3568 22.5Z" fill="white"/>
</svg>
